<svg id="Сгруппировать_3" data-name="Сгруппировать 3" xmlns="http://www.w3.org/2000/svg" xmlns:xlink="http://www.w3.org/1999/xlink" width="23.959" height="24" viewBox="0 0 23.959 24">
  <defs>
    <clipPath id="clip-path">
      <rect id="Прямоугольник_7" data-name="Прямоугольник 7" width="23.959" height="24" fill="#fff"/>
    </clipPath>
  </defs>
  <g id="Сгруппировать_2" data-name="Сгруппировать 2" clip-path="url(#clip-path)">
    <path id="Контур_4" data-name="Контур 4" d="M11.281,0h1.4c.316.038.633.07.948.115a11.687,11.687,0,0,1,6.237,2.861,11.752,11.752,0,0,1,3.906,6.96c.079.451.124.908.184,1.362V12.7c-.014.083-.032.165-.043.248-.057.433-.09.87-.172,1.3A11.723,11.723,0,0,1,20.5,20.431a11.674,11.674,0,0,1-6.452,3.384c-.451.078-.908.124-1.362.185h-1.4c-.068-.014-.136-.03-.2-.04-.653-.1-1.318-.156-1.958-.31a12.011,12.011,0,0,1-8.9-13.9A11.8,11.8,0,0,1,3.465,3.57,11.675,11.675,0,0,1,9.918.185C10.37.107,10.826.061,11.281,0m8.688,18.892A10.558,10.558,0,1,0,3.887,5.208,10.48,10.48,0,0,0,4,18.879a8.319,8.319,0,0,1,5.138-5.707,5.108,5.108,0,0,1-.8-7.674,5.041,5.041,0,0,1,7.111-.165A4.79,4.79,0,0,1,17.015,8.9a5.019,5.019,0,0,1-2.192,4.268,8.357,8.357,0,0,1,5.146,5.727m-7.9,3.7c.233-.012.544-.025.855-.045.132-.009.263-.031.394-.048a10.4,10.4,0,0,0,5.334-2.3.273.273,0,0,0,.083-.21,6.812,6.812,0,0,0-13.5-.01.293.293,0,0,0,.089.228,10.567,10.567,0,0,0,6.745,2.384m-.088-9.964A3.642,3.642,0,1,0,8.343,9a3.65,3.65,0,0,0,3.637,3.632" transform="translate(0)" fill="#fff"/>
  </g>
</svg>
