<?xml version="1.0" encoding="UTF-8"?>
<svg id="_Слой_1" data-name=" Слой 1" xmlns="http://www.w3.org/2000/svg" version="1.1" viewBox="0 0 20 14.1">
  <defs>
    <style>
      .cls-1 {
        fill: #e5bc00;
        stroke-width: 0px;
      }
    </style>
  </defs>
  <path class="cls-1" d="M20,12.5c-.1.3-.2.6-.4.8-.3.5-.8.7-1.4.7H1.9c-.6,0-1.1-.2-1.5-.7-.2-.3-.4-.7-.4-1.1V1.8C0,.7.8,0,1.9,0h16.3c.8,0,1.3.3,1.7,1,0,.2.1.4.2.5v10.9h0ZM2,1.2c0,0,0,0,0,.1,2.2,2.2,4.4,4.4,6.6,6.6.8.8,1.8.8,2.6,0,2.2-2.2,4.4-4.3,6.6-6.5,0,0,0,0,.1-.1,0,0-16,0-16,0ZM2.1,12.9h15.7c-1.6-1.6-3.3-3.3-4.9-5-.3.3-.6.6-.8.8-.5.5-1.2.9-1.9.9-.9,0-1.7-.3-2.3-.9-.3-.3-.5-.5-.8-.8-1.7,1.7-3.3,3.4-4.9,5h0ZM1.2,2v10.1c1.7-1.7,3.3-3.4,4.9-5-1.6-1.6-3.3-3.3-4.9-5ZM18.8,2c-1.7,1.7-3.3,3.4-4.9,5,1.6,1.6,3.3,3.3,4.9,5V2Z"/>
</svg>