<svg xmlns="http://www.w3.org/2000/svg" width="166.96" height="38.24" viewBox="0 0 166.96 38.24">
  <g id="Сгруппировать_1" data-name="Сгруппировать 1" transform="translate(-245.24 198.28)">
    <path id="Контур_2" data-name="Контур 2" d="M13.48-15.2a2.14,2.14,0,0,1-.56,1.52,1.881,1.881,0,0,1-1.44.6,1.757,1.757,0,0,1-1.2-.42,1.348,1.348,0,0,1-.48-1.06,1.386,1.386,0,0,1,.36-.96q.36-.4.36-.56,0-.6-.88-.6a2.278,2.278,0,0,0-1.92,1.4Q6.8-13.64,6.8-9.2v7.92a.557.557,0,0,0,.34.6A10.211,10.211,0,0,0,9.2-.52q.44.08.44.32,0,.28-.52.28Q8.2.08,7.4.04T4.36,0Q3.2,0,2.68.04T1.36.08Q.72.08.72-.2t.52-.28H1.8q1.36,0,1.6-.32a6.564,6.564,0,0,0,.08-1.48v-11q0-2.2-.66-2.54a5.156,5.156,0,0,0-2.1-.38q-.48,0-.48-.28t.4-.28H.92q.6,0,1.2.06a4.3,4.3,0,0,1,.52.06,7.853,7.853,0,0,0,3.28-.84l.52-.24.32-.12a11.66,11.66,0,0,1,.16,1.92v.8q1.28-2.8,3.6-2.8a2.994,2.994,0,0,1,2.12.78A2.539,2.539,0,0,1,13.48-15.2ZM30.68-1.8q0,.68-1.42,1.42a5.923,5.923,0,0,1-2.74.74q-2.76,0-2.88-2.84A4.989,4.989,0,0,1,18.92.48,4.056,4.056,0,0,1,16.08-.54a3.384,3.384,0,0,1-1.12-2.62q0-3.28,3.96-5.2a22.026,22.026,0,0,1,4.72-1.28v-1a18.68,18.68,0,0,0-.36-4.64,2.728,2.728,0,0,0-2.88-2.04,3.6,3.6,0,0,0-2.34.76,2.367,2.367,0,0,0-.94,1.92q0,.32.5.32a1.16,1.16,0,0,1,.9.48,1.643,1.643,0,0,1,.4,1.08A1.556,1.556,0,0,1,17.16-11a2.025,2.025,0,0,1-1.52-.62,2.179,2.179,0,0,1-.6-1.58,4.255,4.255,0,0,1,1.48-3.24,6.562,6.562,0,0,1,4.56-1.48q4.4,0,5.4,2.4a11.85,11.85,0,0,1,.36,3.64V-4.4q0,1.84.04,2.16Q27.08-.8,28.04-.8a2.365,2.365,0,0,0,1.84-.8q.4-.44.6-.44T30.68-1.8ZM23.64-6.04V-8.96a10.326,10.326,0,0,0-4.3,1.78,3.656,3.656,0,0,0-1.3,2.94,3.015,3.015,0,0,0,.74,2.1,2.4,2.4,0,0,0,1.86.82A3.107,3.107,0,0,0,23.4-3.24,8.749,8.749,0,0,0,23.64-6.04ZM48.8-.24q0,.32-.6.32h-.48A18.707,18.707,0,0,0,45.76,0q-3.92,0-4.64.08h-.28q-.52,0-.52-.28a.23.23,0,0,1,.22-.24q.22-.04,1.54-.08.76-.04.88-.22a3.653,3.653,0,0,0,.12-1.3V-9.72a22.573,22.573,0,0,0-.32-5.2,2.643,2.643,0,0,0-2.72-1.8,4.1,4.1,0,0,0-3.36,1.76,2.311,2.311,0,0,0-.4,1.44l.04,12.48q0,.48.84.52l1.2.04q.4,0,.4.28t-.48.28h-.64Q36.76,0,34.84,0q-.44,0-1.9.04t-1.7.04H31q-.6,0-.6-.28t.72-.36h1q.6,0,.72-.28l.12-.6v-8.72q0-4.56-.08-5.04t-1-.48a9.542,9.542,0,0,0-.96.08h-.2q-.8,0-.8-.28,0-.36.84-.36a10.826,10.826,0,0,0,2.6-.44,4.961,4.961,0,0,0,1.96-.92,1.02,1.02,0,0,1,.56-.32q.28,0,.28.76v1.92a6.487,6.487,0,0,1,5.36-2.68,4.486,4.486,0,0,1,4.16,2.12,9.824,9.824,0,0,1,.72,4.56v9.12a3.8,3.8,0,0,0,.12,1.4,1.807,1.807,0,0,0,1.16.24,4.258,4.258,0,0,0,.44-.04h.28Q48.8-.52,48.8-.24ZM68.08-.8q0,.28-.56.28h-.2a6.172,6.172,0,0,1-.68-.04h-.32A6.444,6.444,0,0,0,63,.24a2.431,2.431,0,0,1-.68.32q-.36,0-.36-.48L62-1.16A5.712,5.712,0,0,1,57.92.48,6.937,6.937,0,0,1,52.38-2.1,9.843,9.843,0,0,1,50.2-8.68a9.947,9.947,0,0,1,2.18-6.68,7.128,7.128,0,0,1,5.7-2.56,4.637,4.637,0,0,1,4.08,1.96V-22.2a14.355,14.355,0,0,0-.28-3.76q-.24-.6-.72-.56-1.16.12-1.4.12-.52,0-.52-.36t.44-.36l1.44.04A9.248,9.248,0,0,0,64.8-28.2a.645.645,0,0,1,.28-.08q.4,0,.4.96v.84q-.04.64-.04,1.12v13.8q0,9.48.2,10.16.08.28,1.88.28Q68.08-1.12,68.08-.8ZM62.16-10.84q0-3.84-.84-4.92a3.373,3.373,0,0,0-2.76-1.36,3.858,3.858,0,0,0-3.44,2.24,12.076,12.076,0,0,0-1.28,6,15.314,15.314,0,0,0,1.12,6.16A4.42,4.42,0,0,0,56.38-.94a3.212,3.212,0,0,0,1.94.7,3.674,3.674,0,0,0,2.24-.74,3.361,3.361,0,0,0,1.3-1.78A54.087,54.087,0,0,0,62.16-10.84ZM86-8.64a9.353,9.353,0,0,1-2.36,6.5A7.589,7.589,0,0,1,77.76.48a7.967,7.967,0,0,1-6.08-2.62,9.174,9.174,0,0,1-2.44-6.5,9.544,9.544,0,0,1,2.38-6.64,7.667,7.667,0,0,1,5.94-2.64,7.806,7.806,0,0,1,6.02,2.66A9.468,9.468,0,0,1,86-8.64Zm-3.64-.04A14.191,14.191,0,0,0,81-15.52a3.532,3.532,0,0,0-3.36-1.8,3.864,3.864,0,0,0-3.5,2.3,13.4,13.4,0,0,0-1.26,6.38,12.4,12.4,0,0,0,1.34,6.3A4.153,4.153,0,0,0,77.96-.08a2.986,2.986,0,0,0,2.72-1.4A13.319,13.319,0,0,0,82.36-8.68ZM115.32-.24q0,.32-.68.32-.08,0-.86-.04T111.68,0q-.12,0-4.24.08-.52,0-.52-.28,0-.32.44-.32h.32l1-.04q.6-.04.7-.28a7.266,7.266,0,0,0,.1-1.68v-9.92a6.483,6.483,0,0,0-.62-3.3,2.29,2.29,0,0,0-2.1-.98,3.354,3.354,0,0,0-1.94.62,3.3,3.3,0,0,0-1.26,1.58,31.008,31.008,0,0,0-.16,4.44v7.56A14.405,14.405,0,0,0,103.44-1a.643.643,0,0,0,.72.48h1.16q.52,0,.52.32,0,.28-.6.28h-.28A23.8,23.8,0,0,0,102.24,0q-.8,0-2.14.04T98.48.08h-.44q-.48,0-.48-.32,0-.2.24-.24t1.6-.04q.64-.04.68-.4l.04-.56V-12.64a6.242,6.242,0,0,0-.58-3.2,2.281,2.281,0,0,0-2.06-.88,3.454,3.454,0,0,0-2.46.92,3.047,3.047,0,0,0-.98,2.32V-2.12A3.068,3.068,0,0,0,94.22-.7q.18.22,1.18.22h.32a2.693,2.693,0,0,1,.44-.04q.44,0,.44.32,0,.28-.52.28h-.4a23.119,23.119,0,0,0-3-.08L88.76.08q-.56,0-.56-.32,0-.28.52-.28a5.675,5.675,0,0,0,1.76-.14.614.614,0,0,0,.28-.5v-10.4a26.631,26.631,0,0,0-.12-3.52q-.12-.52-1.16-.52h-.56a6.888,6.888,0,0,1-.76.04q-.52,0-.52-.28,0-.24.18-.28t1.3-.12a9.2,9.2,0,0,0,2.3-.48A3.487,3.487,0,0,0,93-17.48q.44-.44.64-.44t.24.32q.04.32.08,2.24a5.4,5.4,0,0,1,4.92-2.56q3.56,0,4.32,2.68a5.352,5.352,0,0,1,5-2.68q2.96,0,4,2.12a8.937,8.937,0,0,1,.56,3.72V-2.2a3.819,3.819,0,0,0,.14,1.5,3.13,3.13,0,0,0,1.26.22l.72-.04Q115.32-.56,115.32-.24Z" transform="translate(245 -170)" fill="#fff"/>
    <path id="Контур_3" data-name="Контур 3" d="M13.44-5.08a5.238,5.238,0,0,1-1.7,3.94A5.68,5.68,0,0,1,7.68.48,7.884,7.884,0,0,1,4.36-.48a1.994,1.994,0,0,0-.92-.28q-.56,0-.84.76-.16.48-.44.48T1.88.16a3.47,3.47,0,0,1,.04-.48,17.2,17.2,0,0,0,.12-2.36q0-.12-.04-.96T1.96-4.76V-5.2q0-.44.28-.44.32,0,.36.44A5.924,5.924,0,0,0,3.64-2.32,5.125,5.125,0,0,0,7.92-.24a3.22,3.22,0,0,0,2.32-.84,2.952,2.952,0,0,0,.88-2.24,3.205,3.205,0,0,0-1-2.48A4.291,4.291,0,0,0,9.1-6.54Q8.64-6.76,6.4-7.6,1.96-9.28,1.96-12.64A5.107,5.107,0,0,1,3.48-16.4a5.107,5.107,0,0,1,3.76-1.52,9.28,9.28,0,0,1,2.4.48,2.534,2.534,0,0,0,.72.12.968.968,0,0,0,1.04-.8q.12-.4.36-.4.28,0,.28.32a2,2,0,0,1-.04.24l-.04,1.68a22.5,22.5,0,0,0,.2,3.08v.08a.283.283,0,0,1-.32.32q-.24,0-.6-1.2A4.616,4.616,0,0,0,9.7-16.32a3.95,3.95,0,0,0-2.54-.88,3.113,3.113,0,0,0-2.24.84,2.806,2.806,0,0,0-.88,2.12q0,2,2.68,3.04A18.625,18.625,0,0,1,12-8.48,4.565,4.565,0,0,1,13.44-5.08ZM32.8-8.88A10.006,10.006,0,0,1,30.54-2.2,7.062,7.062,0,0,1,24.92.48a4.8,4.8,0,0,1-4.08-1.92V7.88a4.738,4.738,0,0,0,.06,1.04q.06.16.38.28a14.34,14.34,0,0,0,2.32.12q.48,0,.48.36,0,.28-.52.28H21.88q-.6-.04-1.04-.04-.24,0-1.32.04h-3.8q-1.16,0-1.16-.28,0-.36.48-.36h1.2q1.16,0,1.24-.52.04-.24.04-3.68V-14.8q0-1.12-1.08-1.04-1.6-.08-1.68-.08-.36,0-.36-.28,0-.36.88-.36a7.357,7.357,0,0,0,4-1.04,1.743,1.743,0,0,1,.8-.32.4.4,0,0,1,.42.3,9.688,9.688,0,0,1,.14,1.82,4.858,4.858,0,0,1,4.24-2.12,7.227,7.227,0,0,1,5.7,2.54A9.517,9.517,0,0,1,32.8-8.88Zm-3.56.04a13.265,13.265,0,0,0-.96-5.32Q27-17.2,24.32-17.2a3.307,3.307,0,0,0-2.4.98,3.5,3.5,0,0,0-1.08,2.38q-.08,1.76.04,7.4.04,2.84.12,3.42a2.617,2.617,0,0,0,.52,1.18,3.53,3.53,0,0,0,3,1.64,3.4,3.4,0,0,0,3.12-1.76A13.27,13.27,0,0,0,29.24-8.84ZM51.2-1.8q0,.68-1.42,1.42a5.923,5.923,0,0,1-2.74.74q-2.76,0-2.88-2.84A4.989,4.989,0,0,1,39.44.48,4.056,4.056,0,0,1,36.6-.54a3.384,3.384,0,0,1-1.12-2.62q0-3.28,3.96-5.2a22.026,22.026,0,0,1,4.72-1.28v-1a18.68,18.68,0,0,0-.36-4.64,2.728,2.728,0,0,0-2.88-2.04,3.6,3.6,0,0,0-2.34.76,2.367,2.367,0,0,0-.94,1.92q0,.32.5.32a1.16,1.16,0,0,1,.9.48,1.643,1.643,0,0,1,.4,1.08A1.556,1.556,0,0,1,37.68-11a2.025,2.025,0,0,1-1.52-.62,2.179,2.179,0,0,1-.6-1.58,4.255,4.255,0,0,1,1.48-3.24,6.562,6.562,0,0,1,4.56-1.48q4.4,0,5.4,2.4a11.85,11.85,0,0,1,.36,3.64V-4.4q0,1.84.04,2.16Q47.6-.8,48.56-.8a2.365,2.365,0,0,0,1.84-.8q.4-.44.6-.44T51.2-1.8ZM44.16-6.04V-8.96a10.326,10.326,0,0,0-4.3,1.78,3.656,3.656,0,0,0-1.3,2.94,3.015,3.015,0,0,0,.74,2.1,2.4,2.4,0,0,0,1.86.82,3.107,3.107,0,0,0,2.76-1.92A8.749,8.749,0,0,0,44.16-6.04Z" transform="translate(361 -170)" fill="#e5bc00"/>
  </g>
</svg>
