<?xml version="1.0" encoding="UTF-8"?>
<svg id="_Слой_1" data-name=" Слой 1" xmlns="http://www.w3.org/2000/svg" version="1.1" viewBox="0 0 20 20.1">
  <defs>
    <style>
      .cls-1 {
        fill: #e5bc00;
        stroke-width: 0px;
      }
    </style>
  </defs>
  <path class="cls-1" d="M15,20.1c-.3,0-.6,0-.8-.1-1.1-.2-2.1-.6-3.1-1.1-1.6-.8-3.1-1.8-4.5-3C3.8,13.5,1.7,10.6.5,7.2c-.3-.8-.5-1.7-.5-2.6,0-.9.3-1.7.9-2.3.6-.6,1.1-1.1,1.7-1.6,1-.8,1.9-.8,2.8,0,.9.9,1.8,1.8,2.7,2.7.7.8.7,1.8,0,2.6-.5.5-1,1.1-1.5,1.6,0,0-.1.2,0,.3.5,1.1,1.3,2,2.1,2.9.8.9,1.7,1.7,2.8,2.3.3.2.6.3.8.5.1,0,.2,0,.3,0,.4-.4.9-.9,1.3-1.3s.7-.6,1.2-.7c.7-.1,1.2.1,1.7.6.9.8,1.7,1.7,2.5,2.5.9.9,1,1.9.1,2.9-.6.7-1.2,1.3-1.9,1.9-.5.4-1,.6-1.7.7,0,0,0,0-.1,0,0,0-.8,0-.8,0ZM15.4,19.1c.6,0,1.2-.1,1.6-.6.6-.6,1.2-1.1,1.7-1.8.4-.5.4-.9,0-1.4-.9-.9-1.8-1.8-2.7-2.7-.4-.4-.8-.4-1.2,0,0,0-.2.1-.3.2-.5.5-1,1-1.5,1.4-.3.3-.7.4-1.1.2-.3-.1-.6-.3-.8-.5-1.3-.8-2.4-1.8-3.4-2.9-.9-.9-1.6-1.9-2.2-3.1-.2-.5-.2-.8.2-1.2.5-.5,1-.9,1.4-1.4.6-.6.6-1,0-1.6h0c-.8-.8-1.6-1.6-2.4-2.4-.1-.1-.3-.2-.4-.3-.5-.2-.8,0-1.2.3-.5.5-1,1-1.5,1.5-.2.2-.4.5-.5.8-.3.7-.2,1.3,0,2,.3,1.3.8,2.5,1.4,3.7,1.1,2,2.6,3.8,4.3,5.4,1.7,1.6,3.7,2.8,5.9,3.7.9.3,1.7.6,2.6.6h0Z"/>
</svg>