<svg xmlns="http://www.w3.org/2000/svg" width="164.956" height="24.77" viewBox="0 0 164.956 24.77">
  <g id="Сгруппировать_5" data-name="Сгруппировать 5" transform="translate(-67.052 -109.266)">
    <path id="Контур_7" data-name="Контур 7" d="M80.075,129.8l-8.049,4.231,1.537-8.962-6.511-6.347,9-1.307,4.025-8.154L84.1,117.42l9,1.307-6.512,6.347,1.537,8.962Z" fill="#ffd67d"/>
    <path id="Контур_8" data-name="Контур 8" d="M114.8,129.8l-8.048,4.231,1.537-8.962-6.512-6.347,9-1.307,4.024-8.154,4.024,8.154,9,1.307-6.511,6.347,1.537,8.962Z" fill="#ffd67d"/>
    <path id="Контур_9" data-name="Контур 9" d="M149.53,129.8l-8.049,4.231,1.537-8.962-6.511-6.347,9-1.307,4.025-8.154,4.024,8.154,9,1.307-6.512,6.347,1.537,8.962Z" fill="#ffd67d"/>
    <path id="Контур_10" data-name="Контур 10" d="M184.257,129.8l-8.048,4.231,1.537-8.962-6.512-6.347,9-1.307,4.024-8.154,4.025,8.154,9,1.307-6.511,6.347,1.537,8.962Z" fill="#ffd67d"/>
    <path id="Контур_11" data-name="Контур 11" d="M218.985,129.8l-8.049,4.231,1.537-8.962-6.511-6.347,9-1.307,4.024-8.154,4.024,8.154,9,1.307-6.512,6.347,1.537,8.962Z" fill="#ffd67d"/>
  </g>
</svg>
