<?xml version="1.0" encoding="UTF-8"?>
<svg id="_Слой_1" data-name=" Слой 1" xmlns="http://www.w3.org/2000/svg" version="1.1" viewBox="0 0 20 20">
  <defs>
    <style>
      .cls-1 {
        fill: #e5bc00;
        stroke-width: 0px;
      }
    </style>
  </defs>
  <path class="cls-1" d="M9.4,0h1.2c.3,0,.7,0,1,.1,1.9.3,3.5,1.1,4.9,2.3,2.6,2.3,3.7,5.2,3.4,8.6-.2,2-.9,3.8-2.2,5.3-1.6,1.9-3.6,3.1-6,3.6-.4,0-.7.1-1.1.2h-1.2s-.1,0-.1,0c-2-.2-3.8-.9-5.4-2.1-2-1.6-3.3-3.7-3.7-6.2C0,11.4,0,11,0,10.7v-1.2c0-.2,0-.5,0-.7.3-2.2,1.3-4.1,2.8-5.7C4.4,1.5,6.2.5,8.3.2c.4,0,.7-.1,1.1-.2ZM10,1.4c-4.8,0-8.6,3.9-8.7,8.7,0,4.8,3.9,8.7,8.6,8.7,4.8,0,8.6-3.9,8.7-8.7,0-4.8-3.9-8.7-8.6-8.7Z"/>
  <path class="cls-1" d="M10.6,9.4c.4-.3.8-.6,1.1-.9.4-.3.7-.6,1.1-.9.3-.2.6-.2.9,0,.2.2.3.6.1.8,0,0-.1.2-.2.2-1.1.9-2.1,1.7-3.2,2.5-.2.2-.5.3-.8.1-.3-.1-.4-.4-.4-.7,0-1.7-.1-3.5-.2-5.2,0-.7,0-1.4,0-2,0-.5.3-.8.8-.7.3,0,.6.3.6.7,0,.8,0,1.5,0,2.3,0,1.2,0,2.4.1,3.5,0,0,0,0,0,.1h0Z"/>
</svg>